<svg width="126" height="16" viewBox="0 0 126 16" fill="none" xmlns="http://www.w3.org/2000/svg">
<g clip-path="url(#clip0_2282_20349)">
<path d="M87.9282 5.08814H86.0585V3.50531H87.9282V1.1308H89.7412V3.50531H92.7438V5.08814H89.7412V9.83749C89.7412 11.0248 90.0807 11.6467 91.6108 11.6467C92.031 11.6329 92.4486 11.5761 92.8572 11.4771V13.1168C92.234 13.2299 91.7808 13.2299 91.0442 13.2299C88.1548 13.2299 87.9282 11.1381 87.9282 10.0073V5.08814Z" fill="#231F20"/>
<path d="M114.216 3.50531H112.346V13.3428H114.216V3.50531Z" fill="#231F20"/>
<path d="M117.558 8.31084C117.558 10.968 119.768 11.6465 120.788 11.6465C122.771 11.6465 124.187 10.5157 124.187 8.25421C124.187 5.99273 122.601 4.97465 120.788 4.97465C119.711 5.03117 117.558 5.59656 117.558 8.31029V8.31084ZM115.632 8.31029C115.632 4.63653 118.635 3.33563 120.675 3.33563C123.054 3.33563 124.187 4.6925 124.187 4.6925L124.3 3.44867H126V13.2862H124.3L124.187 11.9853C124.187 11.9853 122.997 13.2862 120.675 13.2862C118.295 13.3427 115.632 11.9858 115.632 8.31084V8.31029Z" fill="#231F20"/>
<path d="M114.499 1.24383C114.499 0.913945 114.368 0.597572 114.134 0.364309C113.9 0.131046 113.583 0 113.253 0C112.922 0 112.605 0.131046 112.371 0.364309C112.138 0.597572 112.006 0.913945 112.006 1.24383C112.009 1.57282 112.141 1.88752 112.375 2.12016C112.608 2.3528 112.923 2.48478 113.253 2.48766C113.933 2.43114 114.499 1.92226 114.499 1.24383Z" fill="#231F20"/>
<path d="M110.93 5.20138V3.5053C109.06 3.3352 107.757 3.788 106.737 4.86217L106.624 3.5053H104.868V13.3428H106.737V8.25454C106.794 6.84116 107.927 5.03194 110.93 5.2016" fill="#231F20"/>
<path d="M93.2537 8.36747C93.2537 5.3143 95.5198 3.33563 98.5793 3.33563C101.582 3.33563 103.678 5.54059 103.678 8.1978C103.676 8.46254 103.657 8.72687 103.622 8.98927L95.2367 9.04579C95.2933 10.5723 97.0497 11.703 98.8627 11.703C100.012 11.7015 101.121 11.279 101.979 10.5157L103.338 11.703C101.978 13.0035 100.506 13.3992 98.8624 13.3992C95.5198 13.3992 93.2537 11.4769 93.2537 8.4805V8.36747ZM101.582 7.51937C101.582 6.16251 100.222 5.08823 98.5793 5.08823C96.823 5.08823 95.3499 6.1624 95.2367 7.51937H101.582Z" fill="#231F20"/>
<path d="M82.036 7.46285C80.1663 7.12396 78.2967 6.89746 78.2967 5.99284C78.2967 5.42745 78.8633 4.91868 80.5063 4.91868C81.7527 4.91868 83.169 5.20138 83.5656 6.04947L85.3219 5.3143C84.6421 3.95755 82.6592 3.33563 80.3929 3.33563C78.4101 3.33563 76.2571 4.07058 76.2571 6.10599C76.2571 7.85859 77.8434 8.36746 80.4495 8.87634C82.2058 9.21523 83.7921 9.38522 83.7921 10.2897C83.7921 10.8551 82.999 11.6466 81.016 11.6466C79.5996 11.6466 78.1832 11.3639 77.7296 10.3457L76.0305 11.0812C76.7104 12.6077 78.58 13.3988 80.6762 13.3988C84.9252 13.3988 85.7751 11.3635 85.7751 10.2327C85.8317 8.36692 83.9055 7.80152 82.036 7.46231" fill="#231F20"/>
<path d="M27.8178 5.03205C26.0048 5.03205 24.4184 6.0497 24.4184 8.31162C24.4184 10.5735 25.835 11.7032 27.8178 11.7032C28.8375 11.7032 31.0471 11.3075 31.0471 8.36759C31.0471 5.42768 28.8372 5.03205 27.8178 5.03205ZM27.8744 13.343C25.4949 13.343 24.3618 11.873 24.3618 11.873V16H22.5486V3.50531H24.2482L24.3616 4.74914C24.3616 4.74914 25.4946 3.39227 27.8741 3.39227C29.9702 3.39227 32.9164 4.46644 32.9164 8.36748C32.973 12.212 30.2536 13.3428 27.8741 13.3428L27.8744 13.343Z" fill="#231F20"/>
<path d="M41.9245 8.31084C41.9245 10.968 44.134 11.6465 45.1538 11.6465C47.1366 11.6465 48.5531 10.5157 48.5531 8.25421C48.5531 5.99273 46.9668 4.97465 45.1538 4.97465C44.134 5.03117 41.9245 5.59656 41.9245 8.31029V8.31084ZM40.0549 8.31029C40.0549 4.63653 43.0575 3.33563 45.0972 3.33563C47.4766 3.33563 48.6098 4.6925 48.6098 4.6925L48.7231 3.44867H50.4227V13.2862H48.7231L48.6098 11.9853C48.6098 11.9853 47.42 13.2862 45.0972 13.2862C42.7176 13.3427 40.0549 11.9858 40.0549 8.31084V8.31029Z" fill="#231F20"/>
<path d="M40.1682 5.20138V3.5053C38.2985 3.3352 36.9955 3.788 35.9757 4.86217L35.8624 3.5053H34.0494V13.3428H35.9191V8.25454C35.9757 6.84116 37.1088 5.03194 40.1682 5.2016" fill="#231F20"/>
<path d="M6.00544 7.46298C4.13581 7.12409 2.26619 6.89758 2.26619 5.99297C2.26619 5.42757 2.83276 4.9188 4.47574 4.9188C5.72215 4.9188 7.13848 5.2015 7.53504 6.04959L9.29128 5.31464C8.61155 4.01419 6.62865 3.39227 4.36246 3.39227C2.37946 3.39227 0.226651 4.12722 0.226651 6.16263C0.226651 7.91523 1.81299 8.42411 4.4191 8.93298C6.17535 9.27187 7.76169 9.44186 7.76169 10.3464C7.76169 10.9118 6.96857 11.7032 4.98556 11.7032C3.56924 11.7032 2.1528 11.4205 1.69917 10.4023L0 11.1378C0.679845 12.6644 2.54947 13.4554 4.64564 13.4554C8.89472 13.4554 9.74459 11.4201 9.74459 10.2893C9.80122 8.36748 7.93116 7.80219 6.00544 7.46298Z" fill="#231F20"/>
<path d="M16.0333 3.39227C13.5405 3.39227 10.5378 4.6361 10.5378 8.36748C10.5378 12.0423 13.2006 13.4558 16.0333 13.4558C18.8661 13.4558 21.5288 12.0424 21.5288 8.36748C21.5288 4.6361 18.5828 3.39227 16.0333 3.39227ZM16.0333 11.6467C14.5036 11.6467 12.4641 10.9683 12.4641 8.31107C12.4641 5.59734 14.7303 5.03151 16.0333 5.03151C17.3364 5.03151 19.6026 5.5969 19.6026 8.31107C19.6592 11.0248 17.6197 11.6467 16.0333 11.6467Z" fill="#231F20"/>
<path d="M68.5521 13.0035C68.4389 13.06 68.3255 13.1731 68.2125 13.2296C70.4787 13.8516 72.6883 13.795 73.1415 12.4382C73.7081 10.629 70.1388 8.70669 68.4391 7.74556C68.0995 7.5759 67.9292 7.68904 68.1558 7.91522C69.1756 9.21612 70.7053 11.5901 68.5524 13.0036" fill="#F4811F"/>
<path d="M68.1554 13.2294C68.1554 13.2294 65.3226 14.982 60.337 14.982C58.4108 14.982 56.7678 14.6993 56.0879 14.0209C55.3516 13.2861 54.955 12.0989 54.955 11.0247C54.955 10.0635 55.3516 9.27206 56.1448 9.27206C58.2977 9.27206 64.8696 12.6077 68.1556 13.2294" fill="#D9202C"/>
<path d="M58.7509 2.93991C58.8642 2.8834 58.9775 2.77025 59.0905 2.71373C56.8243 2.09182 54.6148 2.14834 54.1616 3.5052C53.595 5.31443 57.1642 7.23669 58.8639 8.19782C59.2035 8.36748 59.3739 8.25433 59.1472 8.02815C58.1275 6.78433 56.5978 4.3533 58.7507 2.9398" fill="#F4811F"/>
<path d="M59.0909 2.71372C59.0909 2.71372 61.9236 0.961121 66.9092 0.961121C68.8354 0.961121 70.4784 1.24382 71.1583 1.92225C71.8949 2.6572 72.2912 3.84451 72.2912 4.91846C72.2912 5.87959 71.8946 6.67106 71.1014 6.67106C69.0051 6.67106 62.4332 3.33541 59.0906 2.71372" fill="#D9202C"/>
</g>
<defs>
<clipPath id="clip0_2282_20349">
<rect width="126" height="16" fill="white"/>
</clipPath>
</defs>
</svg>
